<?xml version="1.0" encoding="UTF-8"?>
<svg id="Livello_2" data-name="Livello 2" xmlns="http://www.w3.org/2000/svg" viewBox="0 0 258.51 258.51">
  <defs>
    <style>
      .cls-1 {
        fill: #ee5622;
        stroke-width: 0px;
      }

      .cls-2 {
        fill: none;
        stroke: #ee5622;
        stroke-miterlimit: 10;
        stroke-width: 18.45px;
      }
    </style>
  </defs>
  <g id="Livello_1-2" data-name="Livello 1">
    <g>
      <path class="cls-1" d="m192.88,65.47c-3.6-3.6-9.4-3.33-13.01.28,0,0-67.03,60.26-89.31,60.26-18.97,0,16.73-37.46,35.62-35.62,6.1.88,13.21,2.37,17.91-2.61,0,0,24.18-24.18,24.18-24.18,5.28-5.28,4.48-14.12-2.27-17.31C75.21,5.89-6.13,121.26,65.64,192.64h0c3.6,3.61,9.4,3.34,13.01-.27,0,0,66.77-60.26,89.31-60.26,18.92,0-16.74,37.52-35.62,35.62-6.1-.88-13.21-2.37-17.91,2.61,0,0-24.13,24.13-24.13,24.13-5.29,5.29-4.48,14.17,2.3,17.34,90.85,40.25,172.01-74.95,100.28-146.34h0Z"/>
      <rect class="cls-2" x="9.23" y="9.23" width="240.06" height="240.06" rx="120.03" ry="120.03"/>
    </g>
  </g>
</svg>