<?xml version="1.0" encoding="UTF-8"?>
<svg id="Livello_2" data-name="Livello 2" xmlns="http://www.w3.org/2000/svg" viewBox="0 0 598.3 258.51">
  <defs>
    <style>
      .cls-1 {
        fill: none;
        stroke: #0f0f0f;
        stroke-miterlimit: 10;
        stroke-width: 18.45px;
      }

      .cls-2 {
        fill: #0f0f0f;
        stroke-width: 0px;
      }
    </style>
  </defs>
  <g id="Livello_1-2" data-name="Livello 1">
    <g id="black">
      <path class="cls-1" d="m469.64,249.29H128.66c-159.18-6.4-159.3-233.61,0-240.06,0,0,340.98,0,340.98,0,159.18,6.4,159.3,233.61,0,240.06Z"/>
      <path class="cls-2" d="m469.85,38.67c-123.97,0-140.69,19.42-146.52,27.12-2.38-3.18-5.09-6.18-8.18-8.97-23.71-23.53-86.16-24.19-111.22-1.32-3.9,3.25-7.42,6.74-10.58,10.45-.09-.09-.17-.17-.25-.26-3.6-3.6-9.4-3.33-13.01.28,0,0-67.03,60.26-89.31,60.26-18.97,0,16.73-37.46,35.62-35.62,6.1.88,13.21,2.37,17.91-2.61,0,0,24.18-24.18,24.18-24.18,5.28-5.28,4.48-14.12-2.27-17.31C75.44,6.12-5.91,121.49,65.86,192.86h0c3.6,3.61,9.4,3.34,13.01-.27,0,0,66.77-60.26,89.31-60.26,18.92,0-16.74,37.52-35.62,35.62-6.1-.88-13.21-2.37-17.91,2.61,0,0-24.13,24.13-24.13,24.13-5.29,5.29-4.48,14.17,2.3,17.34,35.3,15.64,69.13,7.81,93.1-11.8,1.38,1.47,2.85,2.89,4.44,4.25,19.17,17.49,59.66,20.44,80.85,3.91,5.32-3.96,14.32-1.76,15.5,4.76.61,3.34,3.37,5.82,6.69,6.12v.13l.07-.13c.2.02.4.03.6.03v.1h28.8c15.76,0,28.54-12.78,28.54-28.54v-69.29c0-3.68-.9-21.29,34.97-27.84-22.78,55.94,14.7,127.2,83.46,125.67,50.78,1.22,90.8-40.47,89.94-90.37.86-49.9-39.16-91.59-89.94-90.37Zm-197.76,131.33s-.04,0-.06.01c-10.28,5.81-31.23,10.23-42.11,2.14-7.56-5.81-7.18-18.25,1.31-23.67,4.42-3.17,11.24-4.72,20.44-4.72h22.83c4.98,0,9.02,4.04,9.02,9.02,0,7.16-3.84,12.97-11.44,17.21Zm2.6-57.79h-23.01c-12.15,0-22.88.98-32.21,2.91-.67-4.06-1.65-8.12-2.95-12.15,4.79,1.31,9.66.88,11.08-5.28,6.83-25.94,56.54-24.03,55.94,5.67,0,4.88-3.96,8.84-8.84,8.84Zm220.34,46.3c-12.01,14.64-38.34,14.64-50.35,0-19.38-22.02-9.64-71.35,25.17-69.93,22.32-.04,35.2,18.12,34.86,40.45,0,12.34-3.23,22.16-9.68,29.48Z"/>
    </g>
  </g>
</svg>